<?xml version="1.0" standalone="no"?>
<!DOCTYPE svg PUBLIC "-//W3C//DTD SVG 20010904//EN"
 "http://www.w3.org/TR/2001/REC-SVG-20010904/DTD/svg10.dtd">
<svg version="1.0" xmlns="http://www.w3.org/2000/svg"
 width="403.000000pt" height="425.000000pt" viewBox="0 0 403.000000 425.000000"
 preserveAspectRatio="xMidYMid meet">

<g transform="translate(0.000000,425.000000) scale(0.100000,-0.100000)"
fill="#000000" stroke="none">
<path d="M2487 3780 c-52 -10 -118 -58 -144 -106 -12 -21 -27 -71 -33 -109 -6
-38 -12 -70 -13 -71 -1 0 -146 16 -322 37 -371 44 -434 47 -458 21 -15 -16
-368 -779 -1079 -2331 -169 -368 -180 -396 -174 -437 9 -67 51 -142 89 -159
18 -8 549 -121 1181 -251 l1149 -236 46 19 c26 10 54 32 66 49 11 16 162 412
334 879 173 468 319 855 325 862 16 17 336 165 348 161 6 -2 -46 -31 -116 -63
-70 -33 -122 -61 -116 -63 14 -5 300 128 300 139 0 5 -11 4 -25 -1 -35 -13
-31 1 8 26 26 16 32 26 30 53 -1 21 -11 43 -26 59 -25 25 -26 25 -66 9 l-41
-17 0 28 c0 34 19 61 102 144 37 37 76 85 88 107 24 49 26 111 3 158 -19 40
-86 88 -138 97 -19 4 -35 13 -35 20 0 7 25 80 56 162 54 145 55 150 44 200
-12 59 -54 128 -84 142 -12 5 -69 15 -127 22 l-105 12 -11 48 c-19 78 -101
180 -144 180 -7 0 5 -13 27 -30 23 -16 52 -46 67 -67 24 -36 55 -119 46 -127
-2 -2 -146 14 -319 35 -173 21 -323 39 -332 39 -20 0 -23 40 -10 115 l7 39 75
18 c95 22 247 23 320 2 30 -8 66 -17 80 -20 24 -5 24 -4 -4 12 -77 43 -242 51
-399 18 -70 -14 -87 -13 -87 10 0 29 -61 106 -100 126 -32 16 -217 54 -240 49
-3 -1 -22 -5 -43 -9z m141 -122 c30 -30 -4 -77 -41 -57 -29 17 -15 69 18 69 6
0 16 -5 23 -12z m-660 -144 c245 -29 322 -42 322 -52 0 -11 -13 -12 -62 -7
-122 13 -250 -27 -352 -109 l-51 -42 -122 16 c-68 9 -127 14 -132 11 -5 -4
-175 -373 -377 -821 -201 -448 -442 -984 -535 -1190 -93 -206 -169 -383 -169
-393 0 -11 9 -21 20 -24 13 -4 19 -11 16 -22 -3 -9 -2 -22 3 -29 5 -8 416 -92
1096 -224 983 -191 1089 -210 1099 -196 7 9 126 331 265 715 140 384 257 701
260 705 3 4 23 14 43 22 l37 16 -13 -38 c-163 -453 -572 -1532 -587 -1548 -11
-12 -37 -26 -58 -31 -44 -12 44 -29 -1310 251 -720 149 -1050 221 -1063 232
-10 10 -18 31 -18 48 0 46 1236 2731 1264 2745 24 12 5 14 424 -35z m1570
-189 c9 -8 -51 -200 -73 -233 -2 -3 -150 16 -180 23 -11 3 -31 23 -45 46 -35
57 -119 132 -185 164 -30 15 -87 32 -125 38 -61 10 -82 22 -65 38 4 5 666 -70
673 -76z m-1838 -20 c58 -8 108 -15 112 -15 3 0 -9 -26 -28 -57 -38 -64 -42
-83 -16 -83 9 -1 355 -45 769 -98 413 -54 756 -96 762 -94 15 5 14 33 -5 88
-8 25 -14 47 -12 49 2 2 42 -2 88 -8 l85 -12 -3 -67 c-4 -72 4 -96 49 -143
l29 -31 -16 -42 c-14 -34 -21 -41 -38 -37 -20 5 -1386 194 -1811 251 -110 15
-203 30 -207 33 -5 5 92 233 115 269 10 14 -2 15 127 -3z m2045 -5 c41 -9 75
-40 75 -69 0 -26 -146 -415 -157 -418 -6 -2 -22 1 -36 6 l-26 10 25 62 c30 77
31 109 4 116 -15 4 -18 11 -14 29 5 19 1 26 -21 34 -14 5 -38 10 -53 10 -54 0
-57 11 -27 86 15 38 30 89 33 113 l5 43 76 -7 c42 -4 94 -11 116 -15z m-145
-246 c5 -5 -46 -162 -60 -185 -7 -11 -13 -9 -30 6 -45 41 -61 107 -43 174 6
22 9 23 67 16 33 -3 63 -9 66 -11z m-1937 -60 c100 -14 182 -26 183 -27 1 -1
-21 -58 -50 -127 l-52 -125 -50 3 c-27 1 -119 13 -204 26 -119 18 -154 26
-152 37 2 8 26 65 54 127 39 86 55 112 70 112 10 0 101 -12 201 -26z m577 -79
c184 -25 347 -48 361 -51 l26 -5 -23 -62 c-20 -57 -25 -62 -51 -61 -54 3 -728
97 -735 103 -3 3 5 34 20 68 21 53 29 62 46 58 12 -2 172 -25 356 -50z m827
-114 c227 -31 415 -60 418 -62 3 -3 -3 -30 -13 -60 -13 -37 -25 -55 -38 -57
-22 -3 -824 105 -831 112 -4 4 23 99 34 119 5 9 -47 15 430 -52z m-873 -31
c203 -27 371 -51 373 -54 6 -6 -26 -107 -37 -119 -7 -8 -759 99 -769 109 -7 7
42 114 53 114 6 0 177 -22 380 -50z m1459 21 c5 -5 -187 -543 -247 -691 -7
-15 -90 -56 -84 -41 2 5 64 175 138 379 133 366 135 371 160 365 14 -3 28 -9
33 -12z m212 -44 c50 -28 85 -79 85 -126 -1 -59 -35 -117 -125 -211 -77 -80
-85 -92 -85 -128 l0 -39 -101 -47 c-56 -25 -104 -44 -107 -41 -3 2 46 144 109
315 l114 311 35 -6 c19 -4 53 -16 75 -28z m-2332 -24 c108 -15 197 -31 197
-36 0 -5 -21 -58 -46 -118 l-46 -110 -32 6 c-17 3 -110 17 -206 31 -96 14
-176 27 -178 29 -3 2 81 196 95 218 6 10 -5 11 216 -20z m1487 -64 c223 -29
408 -55 413 -59 4 -3 -3 -35 -17 -71 -21 -56 -27 -64 -47 -61 -132 16 -811
120 -815 125 -11 10 37 126 49 122 7 -2 194 -27 417 -56z m-714 -49 c707 -104
1077 -160 1080 -163 1 -1 -17 -54 -41 -117 -25 -68 -49 -116 -58 -118 -8 -2
-133 15 -278 37 -407 61 -1311 201 -1336 206 -21 5 -21 7 23 111 50 120 52
124 63 124 5 0 251 -36 547 -80z m-861 -135 c99 -15 181 -29 183 -30 2 -2 -17
-52 -43 -112 l-46 -110 -207 35 c-114 19 -209 36 -211 38 -2 2 18 52 44 110
46 99 50 105 74 101 14 -3 107 -17 206 -32z m473 -71 c131 -20 239 -38 241
-40 2 -2 -14 -52 -37 -111 -29 -80 -45 -109 -58 -111 -22 -3 -493 74 -501 82
-3 3 14 53 37 111 34 82 48 105 63 105 10 0 125 -16 255 -36z m535 -83 c136
-21 250 -40 252 -43 6 -6 -63 -208 -76 -222 -12 -13 -529 74 -529 90 0 12 64
187 76 205 7 12 0 13 277 -30z m-1113 -77 c96 -14 179 -30 183 -34 5 -4 -82
-226 -194 -494 -147 -354 -206 -486 -218 -486 -32 0 -426 71 -433 78 -3 4 81
201 188 437 263 585 239 538 272 532 15 -3 106 -18 202 -33z m1682 -10 c136
-21 253 -41 259 -44 7 -5 1 -35 -22 -97 -31 -86 -35 -92 -76 -112 l-44 -21
-242 40 c-133 23 -244 43 -247 46 -4 5 35 125 66 203 11 27 18 32 36 28 13 -3
134 -22 270 -43z m767 -76 l9 -26 -571 -268 c-315 -147 -651 -305 -748 -351
-97 -45 -180 -83 -185 -83 -5 1 -19 21 -30 46 l-21 45 36 18 c30 16 748 353
1311 617 l155 72 17 -21 c10 -12 22 -34 27 -49z m-1959 6 c129 -20 237 -38
239 -40 2 -2 -317 -843 -323 -851 -3 -3 -540 89 -545 93 -3 3 217 536 331 803
15 36 22 42 41 38 12 -3 128 -22 257 -43z m520 -85 c140 -23 259 -45 263 -49
8 -7 -96 -309 -122 -358 -5 -9 -68 -46 -141 -81 -96 -47 -147 -80 -192 -121
-80 -73 -74 -84 36 -75 56 5 100 16 145 36 35 16 66 27 69 24 4 -4 -222 -645
-233 -662 -4 -7 -560 93 -559 100 2 18 468 1227 473 1227 4 0 121 -18 261 -41z
m530 -89 c102 -17 196 -33 209 -36 19 -4 -43 -37 -274 -145 -164 -77 -300
-137 -302 -135 -4 4 112 329 124 349 3 5 17 6 31 3 15 -3 110 -19 212 -36z
m95 -677 c-97 -268 -180 -491 -184 -495 -7 -8 -542 80 -552 91 -7 6 186 550
201 565 12 12 704 335 709 331 2 -2 -76 -224 -174 -492z m-719 155 c24 -45 13
-58 -49 -58 -30 0 -57 3 -61 7 -9 9 75 94 86 87 4 -3 15 -19 24 -36z m-778
-164 c141 -26 258 -47 260 -49 1 -1 -15 -44 -35 -96 -35 -86 -40 -94 -63 -91
-73 10 -497 84 -512 90 -15 6 -15 12 7 62 12 30 30 72 38 93 9 20 23 37 32 37
8 0 131 -21 273 -46z m-584 -50 c116 -20 214 -39 217 -43 6 -5 -140 -363 -152
-376 -3 -2 -96 13 -208 35 -112 22 -211 40 -221 40 -11 0 -22 4 -25 10 -8 12
154 370 167 370 6 0 106 -16 222 -36z m504 -158 c140 -25 255 -46 257 -48 1
-2 -25 -75 -59 -163 -51 -133 -65 -160 -81 -159 -52 2 -535 100 -535 108 0 6
28 77 62 158 51 124 64 148 82 148 12 0 135 -20 274 -44z m1113 -251 c144 -24
264 -47 267 -49 6 -7 -98 -296 -107 -296 -24 -1 -551 105 -549 110 2 4 25 68
52 143 28 77 55 137 62 137 7 0 131 -20 275 -45z m-611 -20 c146 -25 266 -45
267 -45 4 0 -48 -146 -56 -159 -8 -12 -51 -6 -283 39 -150 29 -275 54 -277 56
-2 2 9 37 25 79 19 49 34 75 44 75 9 0 135 -20 280 -45z"/>
<path d="M1158 2080 c-21 -17 -38 -36 -38 -42 0 -6 18 6 40 26 22 20 50 36 61
36 19 0 20 -4 15 -35 -8 -41 3 -45 41 -15 37 29 44 25 41 -21 -2 -30 1 -43 12
-47 12 -4 13 -3 2 10 -9 12 -10 23 -2 43 18 47 -11 60 -58 26 l-27 -19 0 32
c0 45 -37 47 -87 6z"/>
<path d="M1064 1828 c-37 -40 -38 -54 -3 -20 41 38 64 42 56 9 -13 -50 27 -58
58 -11 21 33 33 30 37 -8 2 -17 9 -33 16 -34 7 -1 8 0 2 3 -5 2 -10 18 -10 33
0 41 -17 46 -49 16 -34 -33 -39 -33 -43 2 -4 35 -37 41 -64 10z"/>
<path d="M1631 2012 c-19 -9 -37 -23 -39 -30 -2 -7 13 -1 33 13 21 14 42 25
47 25 5 0 16 -16 24 -35 16 -38 51 -48 74 -20 17 21 40 19 40 -4 0 -27 10 -51
21 -51 6 0 5 8 -1 19 -5 11 -10 28 -10 39 0 29 -25 34 -53 11 -35 -27 -45 -24
-61 16 -17 40 -27 42 -75 17z"/>
<path d="M1536 1791 c-16 -11 -34 -28 -40 -38 -6 -12 1 -8 23 10 45 37 67 35
86 -8 l14 -36 52 27 c50 25 53 25 66 8 7 -10 13 -13 13 -7 0 6 -7 16 -16 24
-13 11 -22 10 -57 -9 -50 -26 -57 -27 -57 -7 0 15 -34 55 -47 55 -5 0 -21 -9
-37 -19z"/>
<path d="M2189 1915 c-20 -13 -39 -32 -43 -41 -10 -25 1 -29 14 -4 10 19 66
60 82 60 4 0 8 -19 10 -42 3 -36 7 -44 27 -46 16 -3 34 7 56 28 25 25 40 31
59 28 21 -4 24 -3 15 8 -18 22 -36 17 -79 -22 -49 -45 -70 -40 -70 16 0 48
-17 52 -71 15z"/>
<path d="M2100 1708 c-18 -13 -36 -30 -38 -38 -3 -8 8 -3 24 12 45 41 68 40
74 -2 6 -43 28 -49 76 -21 19 12 44 21 55 21 10 0 19 5 19 10 0 14 -46 2 -88
-23 -37 -22 -49 -16 -54 28 -4 38 -25 42 -68 13z"/>
</g>
</svg>
